<!--?xml version="1.0" standalone="no"?-->

<svg version="1.0" xmlns="http://www.w3.org/2000/svg" width="100%" height="100%" viewBox="0 0 300.000000 345.000000" preserveAspectRatio="xMidYMid meet">
<metadata>
Created by potrace 1.10, written by Peter Selinger 2001-2011
</metadata>
<g transform="translate(0.000000,345.000000) scale(0.100000,-0.100000)" fill="#000000" stroke="none">
<path d="M770 2261 c-55 -19 -355 -182 -383 -208 -43 -41 -57 -82 -57 -172 0
-88 35 -242 90 -393 46 -128 94 -165 232 -184 44 -6 46 -8 52 -46 4 -22 17
-50 32 -65 23 -23 31 -25 93 -21 50 2 74 9 95 25 35 28 50 22 65 -27 6 -21 24
-49 39 -61 39 -30 128 -22 219 20 110 52 142 93 148 190 3 52 6 58 39 79 20
12 38 33 42 47 9 36 -3 85 -25 110 -17 18 -20 40 -23 205 -4 205 -10 228 -70
273 -18 13 -127 70 -243 127 -179 89 -217 104 -265 107 -30 1 -66 -2 -80 -6z
m292 -137 c249 -123 261 -130 282 -158 26 -35 35 -97 35 -267 1 -131 3 -149
21 -172 30 -38 26 -73 -10 -92 -41 -21 -49 -40 -43 -104 3 -41 1 -61 -11 -76
-15 -20 -15 -20 -16 1 0 25 -24 49 -40 39 -6 -4 -11 -24 -9 -44 3 -52 1 -61
-15 -61 -9 0 -16 12 -18 28 -2 19 -9 27 -23 27 -16 0 -20 -7 -20 -38 0 -22 -6
-41 -15 -47 -19 -12 -30 -3 -30 24 0 27 -24 51 -40 41 -5 -3 -10 -24 -10 -46
0 -21 -3 -39 -8 -39 -21 0 -50 33 -56 64 -12 63 -86 87 -139 45 -33 -25 -87
-35 -116 -20 -15 9 -21 21 -21 46 0 44 -27 72 -77 80 -155 25 -174 42 -226
202 -90 271 -98 391 -32 453 14 13 100 63 192 111 225 118 215 117 445 3z" class="svg-elem-1"></path>
<path d="M437 1973 c-15 -14 -3 -23 96 -71 56 -27 131 -72 166 -100 65 -53 84
-61 96 -41 29 46 -319 252 -358 212z" class="svg-elem-2"></path>
<path d="M1235 1929 c-92 -59 -212 -117 -284 -139 -57 -17 -71 -25 -69 -38 9
-42 160 7 324 103 51 30 96 60 100 66 3 6 0 17 -8 25 -12 12 -21 10 -63 -17z" class="svg-elem-3"></path>
<path d="M789 1679 c-17 -33 -7 -326 12 -345 32 -31 37 -3 30 180 -6 182 -15
215 -42 165z" class="svg-elem-4"></path>
<path d="M1262 1663 c-33 -13 -53 -95 -32 -134 20 -36 82 -23 105 22 37 71 -6
139 -73 112z" class="svg-elem-5"></path>
<path d="M956 1515 c-40 -43 -40 -102 -2 -134 57 -48 133 81 81 139 -24 27
-51 25 -79 -5z" class="svg-elem-6"></path>
<path d="M1150 1429 c-12 -22 -16 -91 -6 -108 9 -14 34 -3 41 20 4 12 14 18
28 16 33 -3 33 30 1 64 -33 34 -49 36 -64 8z" class="svg-elem-7"></path>
<path d="M1658 2094 c-5 -4 -8 -99 -8 -210 0 -195 1 -203 20 -209 23 -7 86 0
137 16 77 24 110 123 58 175 l-24 24 19 33 c11 17 20 42 20 55 0 35 -27 80
-59 96 -33 17 -152 32 -163 20z m134 -81 c39 -35 14 -84 -49 -98 l-33 -7 0 61
0 61 32 0 c17 0 40 -7 50 -17z m10 -180 c42 -37 6 -93 -59 -93 l-33 0 0 55 0
55 37 0 c20 0 45 -7 55 -17z" class="svg-elem-8"></path>
<path d="M1947 2094 c-4 -4 -7 -98 -7 -210 0 -170 2 -203 15 -208 8 -3 22 -3
30 0 13 5 15 36 13 213 -3 199 -4 206 -23 209 -12 2 -24 0 -28 -4z" class="svg-elem-9"></path>
<path d="M2165 2081 c-23 -10 -53 -32 -68 -50 -62 -75 -63 -217 0 -291 88
-106 257 -82 314 45 24 53 24 147 0 200 -45 98 -151 139 -246 96z m143 -69
c53 -34 73 -143 38 -210 -42 -80 -170 -82 -211 -2 -24 46 -20 140 8 181 37 56
107 69 165 31z" class="svg-elem-10"></path>
<path d="M1920 1567 c0 -53 -1 -56 -30 -62 -96 -21 -72 -161 26 -153 l39 3 0
130 c0 116 -2 130 -17 133 -15 3 -18 -5 -18 -51z m0 -142 c0 -48 -2 -50 -29
-35 -39 20 -32 80 9 80 17 0 20 -7 20 -45z" class="svg-elem-11"></path>
<path d="M2076 1604 c-3 -9 -6 -33 -6 -55 0 -29 -4 -39 -16 -39 -8 0 -29 -14
-46 -30 -25 -26 -29 -36 -24 -63 8 -43 39 -67 87 -67 l39 0 0 135 c0 109 -3
135 -14 135 -8 0 -17 -7 -20 -16z m-6 -179 c0 -42 -1 -44 -22 -36 -39 14 -32
81 8 81 10 0 14 -13 14 -45z" class="svg-elem-12"></path>
<path d="M2617 1614 c-4 -4 -7 -29 -7 -55 0 -42 -3 -48 -25 -53 -100 -25 -78
-163 24 -154 l36 3 0 129 c0 121 -7 151 -28 130z m-7 -189 c0 -49 -1 -50 -31
-35 -12 7 -19 21 -19 39 0 32 7 41 32 41 15 0 18 -8 18 -45z" class="svg-elem-13"></path>
<path d="M1681 1571 c-24 -24 -39 -74 -47 -158 -6 -53 -4 -63 9 -63 17 0 27
20 27 56 0 22 4 24 44 24 44 0 44 0 51 -40 4 -25 12 -40 21 -40 18 0 18 53 1
137 -20 95 -62 128 -106 84z m53 -29 c2 -4 7 -24 11 -45 l7 -37 -36 0 c-40 0
-43 8 -25 59 10 29 32 41 43 23z" class="svg-elem-14"></path>
<path d="M2150 1470 c0 -98 3 -120 15 -120 11 0 15 17 17 73 l3 72 24 -42 c14
-24 29 -43 35 -43 6 0 23 21 38 48 l27 47 1 -78 c0 -69 2 -78 18 -75 15 3 17
17 17 118 0 135 -10 146 -59 63 -17 -28 -34 -55 -37 -58 -4 -3 -22 21 -40 54
-50 91 -59 82 -59 -59z" class="svg-elem-15"></path>
<path d="M2397 1492 c-24 -26 -23 -104 1 -125 20 -19 87 -23 97 -7 6 10 -1 14
-47 24 -36 8 -36 22 -1 31 16 4 34 11 40 17 16 13 17 50 1 66 -18 18 -73 14
-91 -6z m63 -27 c0 -10 -10 -15 -26 -15 -22 0 -25 2 -14 15 7 8 19 15 26 15 8
0 14 -7 14 -15z" class="svg-elem-16"></path>
</g>
</svg>